<?xml version="1.0" standalone="no"?>
<!DOCTYPE svg PUBLIC "-//W3C//DTD SVG 20010904//EN"
 "http://www.w3.org/TR/2001/REC-SVG-20010904/DTD/svg10.dtd">
<svg version="1.0" xmlns="http://www.w3.org/2000/svg"
 width="325.000000pt" height="325.000000pt" viewBox="0 0 325.000000 325.000000"
 preserveAspectRatio="xMidYMid meet">
<metadata>
Created by potrace 1.14, written by Peter Selinger 2001-2017
</metadata>
<g transform="translate(0.000000,325.000000) scale(0.100000,-0.100000)"
fill="#000000" stroke="none">
<path d="M1133 3219 c-83 -10 -171 -33 -227 -60 -92 -43 -166 -129 -166 -193
0 -14 -6 -27 -12 -27 -7 -1 -22 -3 -33 -4 -11 -2 -47 -6 -80 -9 -184 -19 -404
-70 -502 -117 -184 -88 -120 -185 170 -259 62 -15 130 -31 152 -35 96 -14 181
-26 238 -31 34 -3 73 -7 86 -9 92 -16 643 -23 784 -11 34 3 98 8 142 11 121 9
300 34 400 56 50 11 99 22 110 24 61 13 168 61 204 91 68 59 48 110 -63 163
-55 27 -204 70 -291 85 -16 3 -41 8 -55 10 -31 6 -78 13 -154 22 -33 3 -67 8
-75 9 -9 2 -24 4 -33 4 -12 1 -18 9 -18 27 0 40 -28 90 -72 130 -42 38 -146
91 -194 100 -15 3 -31 7 -34 9 -7 5 -102 15 -170 19 -25 1 -73 -1 -107 -5z"/>
<path d="M2769 2233 c-34 -50 -268 -364 -278 -373 -25 -22 -34 -49 -38 -122
-2 -46 -6 -89 -8 -95 -3 -10 38 -13 186 -13 l191 0 -7 -102 c-3 -57 -8 -115
-11 -130 l-4 -28 120 0 c66 0 120 3 121 8 0 4 2 59 4 122 1 63 3 118 4 122 0
4 34 8 74 10 l72 3 0 88 1 87 -71 0 -71 0 2 63 c4 114 14 291 19 350 l5 57
-139 0 -140 0 -32 -47z m84 -300 c-3 -71 -6 -129 -8 -131 -1 -1 -43 -1 -92 0
l-90 3 95 128 c53 70 97 127 98 127 1 0 -1 -57 -3 -127z"/>
<path d="M769 2057 c-25 -7 -60 -23 -78 -36 -22 -16 -32 -19 -31 -10 7 48 6
49 -107 49 l-108 0 -1 -108 c-2 -99 -6 -208 -20 -456 -3 -55 -6 -104 -7 -110
-1 -7 37 -12 111 -14 86 -2 112 0 113 10 0 7 2 58 4 113 10 261 22 321 72 365
45 40 86 40 122 1 24 -26 27 -36 26 -93 -3 -82 -15 -312 -20 -360 l-4 -38 115
0 114 0 1 78 c2 200 14 324 36 369 33 70 113 94 160 47 l25 -25 -6 -142 c-3
-78 -8 -184 -12 -235 l-6 -93 113 3 114 3 1 65 c2 64 10 234 19 379 5 84 -5
136 -36 175 -71 90 -270 100 -375 20 -46 -35 -46 -35 -61 -15 -39 56 -177 85
-274 58z"/>
<path d="M1869 2066 c-2 -2 -29 -7 -59 -11 -57 -8 -59 -8 -127 -20 l-41 -7 -2
-117 c0 -64 -3 -152 -5 -196 -2 -44 -6 -143 -10 -220 -4 -77 -8 -156 -10 -175
-1 -19 -6 -81 -10 -137 l-7 -103 116 0 116 0 1 103 c1 148 5 227 11 233 3 3
22 -6 42 -19 78 -54 222 -60 313 -15 185 92 238 411 97 582 -30 36 -107 80
-159 92 -34 7 -260 16 -266 10z m205 -189 c53 -30 79 -83 79 -157 0 -148 -111
-237 -222 -180 -60 30 -83 84 -80 188 3 133 5 139 53 156 62 22 124 19 170 -7z"/>
<path d="M79 1578 c0 -2 -3 -49 -5 -105 l-5 -103 113 0 113 0 3 105 3 105
-110 0 c-61 0 -111 -1 -112 -2z"/>
<path d="M2045 819 c-165 -13 -308 -88 -358 -186 -8 -15 -18 -47 -22 -70 -6
-40 -9 -43 -38 -44 -18 0 -41 -2 -52 -4 -11 -2 -39 -7 -63 -10 -136 -18 -322
-67 -400 -105 -89 -43 -118 -78 -112 -135 4 -43 80 -95 198 -134 73 -25 259
-66 347 -76 33 -4 71 -9 85 -11 203 -27 827 -26 969 1 9 1 39 6 66 9 51 7 142
22 183 31 12 3 31 7 41 9 77 17 183 52 225 75 190 102 120 212 -186 291 -62
16 -131 31 -153 35 -22 3 -67 10 -100 15 -33 5 -73 11 -90 12 -19 2 -30 9 -31
18 -2 54 -19 93 -61 140 -68 75 -172 124 -293 136 -30 3 -59 6 -65 8 -5 1 -46
-1 -90 -5z"/>
</g>
</svg>
